<mxfile host="app.diagrams.net" modified="2022-04-17T10:49:01.308Z" agent="5.0 (Windows NT 10.0; Win64; x64) AppleWebKit/537.36 (KHTML, like Gecko) Chrome/99.0.4844.51 Safari/537.36" etag="U97jXfBsCqqOr5bfWRnk" version="17.4.0" type="github">
  <diagram id="z_Y4F_SR7PcxuOku2sR0" name="Page-1">
    <mxGraphModel dx="1718" dy="935" grid="1" gridSize="10" guides="1" tooltips="1" connect="1" arrows="1" fold="1" page="1" pageScale="1" pageWidth="827" pageHeight="1169" math="0" shadow="0">
      <root>
        <mxCell id="0" />
        <mxCell id="1" parent="0" />
        <mxCell id="zTqm8sCnRQ4MfHMiTbh4-3" style="edgeStyle=orthogonalEdgeStyle;rounded=0;orthogonalLoop=1;jettySize=auto;html=1;entryX=0.5;entryY=0;entryDx=0;entryDy=0;" parent="1" source="4N40d74wTq-aytycNkCm-1" target="4N40d74wTq-aytycNkCm-5" edge="1">
          <mxGeometry relative="1" as="geometry" />
        </mxCell>
        <mxCell id="4N40d74wTq-aytycNkCm-1" value="&lt;font style=&quot;font-size: 18px&quot;&gt;Ⅰ型糖尿病患者以及年龄匹配的Ⅱ型糖尿病和特殊类型（MODY，MDM）的糖尿病患者&lt;/font&gt;" style="rounded=0;whiteSpace=wrap;html=1;fillColor=#dae8fc;strokeColor=#6c8ebf;" parent="1" vertex="1">
          <mxGeometry x="305" y="70" width="200" height="90" as="geometry" />
        </mxCell>
        <mxCell id="4N40d74wTq-aytycNkCm-21" style="edgeStyle=orthogonalEdgeStyle;rounded=0;orthogonalLoop=1;jettySize=auto;html=1;exitX=0;exitY=0.5;exitDx=0;exitDy=0;entryX=0.5;entryY=0;entryDx=0;entryDy=0;" parent="1" source="4N40d74wTq-aytycNkCm-5" target="4N40d74wTq-aytycNkCm-18" edge="1">
          <mxGeometry relative="1" as="geometry" />
        </mxCell>
        <mxCell id="4N40d74wTq-aytycNkCm-22" style="edgeStyle=orthogonalEdgeStyle;rounded=0;orthogonalLoop=1;jettySize=auto;html=1;exitX=0.5;exitY=1;exitDx=0;exitDy=0;entryX=0.5;entryY=0;entryDx=0;entryDy=0;" parent="1" source="4N40d74wTq-aytycNkCm-5" target="4N40d74wTq-aytycNkCm-19" edge="1">
          <mxGeometry relative="1" as="geometry" />
        </mxCell>
        <mxCell id="4N40d74wTq-aytycNkCm-23" style="edgeStyle=orthogonalEdgeStyle;rounded=0;orthogonalLoop=1;jettySize=auto;html=1;" parent="1" source="4N40d74wTq-aytycNkCm-5" target="4N40d74wTq-aytycNkCm-20" edge="1">
          <mxGeometry relative="1" as="geometry" />
        </mxCell>
        <mxCell id="4N40d74wTq-aytycNkCm-5" value="&lt;font style=&quot;font-size: 18px&quot;&gt;纳入&lt;/font&gt;" style="rounded=1;whiteSpace=wrap;html=1;fillColor=#ffe6cc;strokeColor=#d79b00;" parent="1" vertex="1">
          <mxGeometry x="345" y="290" width="120" height="60" as="geometry" />
        </mxCell>
        <mxCell id="4N40d74wTq-aytycNkCm-15" value="&lt;font style=&quot;font-size: 18px&quot;&gt;参考排除标准&lt;/font&gt;" style="ellipse;whiteSpace=wrap;html=1;fillColor=#f8cecc;strokeColor=#b85450;" parent="1" vertex="1">
          <mxGeometry x="640" y="190" width="120" height="80" as="geometry" />
        </mxCell>
        <mxCell id="4N40d74wTq-aytycNkCm-14" value="" style="endArrow=classic;html=1;rounded=0;" parent="1" edge="1">
          <mxGeometry width="50" height="50" relative="1" as="geometry">
            <mxPoint x="405" y="230" as="sourcePoint" />
            <mxPoint x="640" y="230" as="targetPoint" />
          </mxGeometry>
        </mxCell>
        <mxCell id="4N40d74wTq-aytycNkCm-16" value="排除" style="text;html=1;strokeColor=none;fillColor=none;align=center;verticalAlign=middle;whiteSpace=wrap;rounded=0;" parent="1" vertex="1">
          <mxGeometry x="480" y="170" width="60" height="30" as="geometry" />
        </mxCell>
        <mxCell id="4N40d74wTq-aytycNkCm-28" style="edgeStyle=orthogonalEdgeStyle;rounded=0;orthogonalLoop=1;jettySize=auto;html=1;exitX=0.5;exitY=1;exitDx=0;exitDy=0;entryX=0.5;entryY=0;entryDx=0;entryDy=0;" parent="1" source="4N40d74wTq-aytycNkCm-18" target="4N40d74wTq-aytycNkCm-27" edge="1">
          <mxGeometry relative="1" as="geometry">
            <Array as="points">
              <mxPoint x="150" y="580" />
              <mxPoint x="405" y="580" />
            </Array>
          </mxGeometry>
        </mxCell>
        <mxCell id="4N40d74wTq-aytycNkCm-18" value="&lt;font style=&quot;font-size: 20px&quot;&gt;心脏核磁&lt;/font&gt;" style="rounded=1;whiteSpace=wrap;html=1;fillColor=#fff2cc;strokeColor=#d6b656;" parent="1" vertex="1">
          <mxGeometry x="90" y="410" width="120" height="60" as="geometry" />
        </mxCell>
        <mxCell id="4N40d74wTq-aytycNkCm-19" value="&lt;font style=&quot;font-size: 20px&quot;&gt;生化指标检测&lt;span style=&quot;white-space: pre&quot;&gt; &lt;/span&gt;&lt;/font&gt;" style="rounded=1;whiteSpace=wrap;html=1;fillColor=#e1d5e7;strokeColor=#9673a6;" parent="1" vertex="1">
          <mxGeometry x="345" y="410" width="120" height="60" as="geometry" />
        </mxCell>
        <mxCell id="4N40d74wTq-aytycNkCm-25" style="edgeStyle=orthogonalEdgeStyle;rounded=0;orthogonalLoop=1;jettySize=auto;html=1;exitX=0.5;exitY=1;exitDx=0;exitDy=0;entryX=0.5;entryY=0;entryDx=0;entryDy=0;" parent="1" source="4N40d74wTq-aytycNkCm-20" target="4N40d74wTq-aytycNkCm-24" edge="1">
          <mxGeometry relative="1" as="geometry" />
        </mxCell>
        <mxCell id="4N40d74wTq-aytycNkCm-20" value="&lt;font style=&quot;font-size: 20px&quot;&gt;心功能评估&lt;/font&gt;" style="rounded=1;whiteSpace=wrap;html=1;fillColor=#d5e8d4;strokeColor=#82b366;" parent="1" vertex="1">
          <mxGeometry x="620" y="410" width="120" height="60" as="geometry" />
        </mxCell>
        <mxCell id="4N40d74wTq-aytycNkCm-24" value="&lt;font style=&quot;font-size: 19px&quot;&gt;心功能不全严重程度评价&lt;/font&gt;" style="rounded=1;whiteSpace=wrap;html=1;fillColor=#d5e8d4;strokeColor=#82b366;" parent="1" vertex="1">
          <mxGeometry x="620" y="550" width="120" height="60" as="geometry" />
        </mxCell>
        <mxCell id="4N40d74wTq-aytycNkCm-36" style="edgeStyle=orthogonalEdgeStyle;rounded=0;orthogonalLoop=1;jettySize=auto;html=1;exitX=1;exitY=0.5;exitDx=0;exitDy=0;" parent="1" source="4N40d74wTq-aytycNkCm-27" target="4N40d74wTq-aytycNkCm-34" edge="1">
          <mxGeometry relative="1" as="geometry">
            <Array as="points">
              <mxPoint x="570" y="760" />
              <mxPoint x="570" y="760" />
            </Array>
          </mxGeometry>
        </mxCell>
        <mxCell id="4N40d74wTq-aytycNkCm-38" style="edgeStyle=orthogonalEdgeStyle;rounded=0;orthogonalLoop=1;jettySize=auto;html=1;entryX=0;entryY=0.5;entryDx=0;entryDy=0;" parent="1" source="4N40d74wTq-aytycNkCm-27" target="4N40d74wTq-aytycNkCm-33" edge="1">
          <mxGeometry relative="1" as="geometry" />
        </mxCell>
        <mxCell id="4N40d74wTq-aytycNkCm-39" style="edgeStyle=orthogonalEdgeStyle;rounded=0;orthogonalLoop=1;jettySize=auto;html=1;exitX=1;exitY=0.5;exitDx=0;exitDy=0;entryX=0;entryY=0.5;entryDx=0;entryDy=0;" parent="1" source="4N40d74wTq-aytycNkCm-27" target="4N40d74wTq-aytycNkCm-35" edge="1">
          <mxGeometry relative="1" as="geometry" />
        </mxCell>
        <mxCell id="4N40d74wTq-aytycNkCm-41" style="edgeStyle=orthogonalEdgeStyle;rounded=0;orthogonalLoop=1;jettySize=auto;html=1;exitX=0.5;exitY=1;exitDx=0;exitDy=0;entryX=0.5;entryY=0;entryDx=0;entryDy=0;" parent="1" source="4N40d74wTq-aytycNkCm-27" target="4N40d74wTq-aytycNkCm-40" edge="1">
          <mxGeometry relative="1" as="geometry" />
        </mxCell>
        <mxCell id="4N40d74wTq-aytycNkCm-27" value="&lt;font style=&quot;font-size: 20px&quot;&gt;数据分组&lt;/font&gt;" style="rounded=1;whiteSpace=wrap;html=1;fillColor=#b1ddf0;strokeColor=#10739e;" parent="1" vertex="1">
          <mxGeometry x="345" y="730" width="120" height="60" as="geometry" />
        </mxCell>
        <mxCell id="4N40d74wTq-aytycNkCm-31" value="" style="endArrow=none;html=1;rounded=0;entryX=0;entryY=0.5;entryDx=0;entryDy=0;" parent="1" target="4N40d74wTq-aytycNkCm-24" edge="1">
          <mxGeometry width="50" height="50" relative="1" as="geometry">
            <mxPoint x="400" y="580" as="sourcePoint" />
            <mxPoint x="470" y="560" as="targetPoint" />
          </mxGeometry>
        </mxCell>
        <mxCell id="4N40d74wTq-aytycNkCm-32" value="" style="endArrow=none;html=1;rounded=0;entryX=0.5;entryY=1;entryDx=0;entryDy=0;" parent="1" target="4N40d74wTq-aytycNkCm-19" edge="1">
          <mxGeometry width="50" height="50" relative="1" as="geometry">
            <mxPoint x="405" y="580" as="sourcePoint" />
            <mxPoint x="430" y="470" as="targetPoint" />
          </mxGeometry>
        </mxCell>
        <mxCell id="4N40d74wTq-aytycNkCm-33" value="&lt;font style=&quot;font-size: 19px&quot;&gt;生化指标（血糖水平、钙离子浓度、FFA等）&lt;/font&gt;" style="rounded=0;whiteSpace=wrap;html=1;fillColor=#fff2cc;strokeColor=#d6b656;gradientColor=#ffd966;" parent="1" vertex="1">
          <mxGeometry x="620" y="630" width="140" height="90" as="geometry" />
        </mxCell>
        <mxCell id="4N40d74wTq-aytycNkCm-34" value="&lt;font style=&quot;font-size: 20px&quot;&gt;左心室大小、壁厚和质量&lt;/font&gt;" style="rounded=0;whiteSpace=wrap;html=1;fillColor=#fff2cc;strokeColor=#d6b656;gradientColor=#ffd966;" parent="1" vertex="1">
          <mxGeometry x="620" y="730" width="140" height="70" as="geometry" />
        </mxCell>
        <mxCell id="4N40d74wTq-aytycNkCm-35" value="&lt;font style=&quot;font-size: 20px&quot;&gt;心功能&lt;/font&gt;" style="rounded=0;whiteSpace=wrap;html=1;fillColor=#fff2cc;strokeColor=#d6b656;gradientColor=#ffd966;" parent="1" vertex="1">
          <mxGeometry x="620" y="820" width="140" height="60" as="geometry" />
        </mxCell>
        <mxCell id="zTqm8sCnRQ4MfHMiTbh4-2" value="" style="edgeStyle=orthogonalEdgeStyle;rounded=0;orthogonalLoop=1;jettySize=auto;html=1;" parent="1" source="4N40d74wTq-aytycNkCm-40" target="zTqm8sCnRQ4MfHMiTbh4-1" edge="1">
          <mxGeometry relative="1" as="geometry" />
        </mxCell>
        <mxCell id="4N40d74wTq-aytycNkCm-40" value="&lt;font style=&quot;font-size: 20px&quot;&gt;统计分析&lt;/font&gt;" style="rounded=1;whiteSpace=wrap;html=1;fillColor=#d5e8d4;gradientColor=#97d077;strokeColor=#82b366;" parent="1" vertex="1">
          <mxGeometry x="345" y="880" width="120" height="60" as="geometry" />
        </mxCell>
        <mxCell id="zTqm8sCnRQ4MfHMiTbh4-1" value="&lt;font style=&quot;font-size: 20px&quot;&gt;对统计结果进行讨论&lt;/font&gt;" style="rounded=1;whiteSpace=wrap;html=1;fillColor=#e6d0de;gradientColor=#d5739d;strokeColor=#996185;" parent="1" vertex="1">
          <mxGeometry x="345" y="1020" width="120" height="60" as="geometry" />
        </mxCell>
      </root>
    </mxGraphModel>
  </diagram>
</mxfile>
